<svg viewBox="0 0 32 32" xmlns="http://www.w3.org/2000/svg"><circle cx="16" cy="16" fill="#e7d8c1" r="16"/><path d="m16 1.5c-8 0-14.5 6.5-14.5 14.5s6.5 14.5 14.5 14.5 14.5-6.5 14.5-14.5-6.5-14.5-14.5-14.5zm-2.7 22.7c-1.7 1-5 .9-7-2.6s-.4-6.4 1.3-7.4c1.3-.8 2.9-.4 3.8 1.1.6 1 .1 1.9.7 2.9s1.3.6 2.2 2.1.4 3.1-.9 3.8zm-.2-12c-1.7 0-2.9-1.2-2.9-2.7s1.7-4.8 5.8-4.8 5.8 2.9 5.8 4.8-1.2 2.7-2.9 2.7-1.7-.9-2.9-.9-1.2.9-2.9.9zm12.6 9.4c-2 3.5-5.4 3.6-7 2.6-1.3-.8-1.8-2.3-.9-3.8.6-1 1.6-1.1 2.2-2.1s-.2-1.4.7-2.9 2.4-1.9 3.8-1.1c1.7 1 3.3 3.9 1.3 7.4z" fill="#9d3944"/></svg>